{
    "asset" : {
        "generator" : "Khronos glTF Blender I/O v1.3.48",
        "version" : "2.0"
    },
    "scene" : 0,
    "scenes" : [
        {
            "name" : "Scene",
            "nodes" : [
                0,
                3
            ]
        }
    ],
    "nodes" : [
        {
            "mesh" : 0,
            "name" : "Cube.001",
            "scale" : [
                0.7748119235038757,
                0.7748119235038757,
                0.7748119235038757
            ]
        },
        {
            "mesh" : 1,
            "name" : "Torus.001",
            "rotation" : [
                0,
                0,
                -0.7071068286895752,
                0.7071068286895752
            ],
            "scale" : [
                0.42204827070236206,
                0.42204827070236206,
                0.42204827070236206
            ],
            "translation" : [
                1.069594144821167,
                0.014472007751464844,
                0
            ]
        },
        {
            "mesh" : 2,
            "name" : "Torus.002",
            "rotation" : [
                0,
                0,
                -0.7071068286895752,
                0.7071068286895752
            ],
            "scale" : [
                0.25022590160369873,
                0.25022590160369873,
                0.25022590160369873
            ],
            "translation" : [
                1.3191417455673218,
                0.014472007751464844,
                0
            ]
        },
        {
            "children" : [
                1,
                2
            ],
            "mesh" : 3,
            "name" : "Cube",
            "translation" : [
                0,
                1.7247531414031982,
                0
            ]
        }
    ],
    "meshes" : [
        {
            "name" : "Cube.002",
            "primitives" : [
                {
                    "attributes" : {
                        "POSITION" : 0,
                        "NORMAL" : 1,
                        "TEXCOORD_0" : 2
                    },
                    "indices" : 3
                }
            ]
        },
        {
            "name" : "Torus.001",
            "primitives" : [
                {
                    "attributes" : {
                        "POSITION" : 4,
                        "NORMAL" : 5,
                        "TEXCOORD_0" : 6
                    },
                    "indices" : 7
                }
            ]
        },
        {
            "name" : "Torus.002",
            "primitives" : [
                {
                    "attributes" : {
                        "POSITION" : 8,
                        "NORMAL" : 9,
                        "TEXCOORD_0" : 10
                    },
                    "indices" : 7
                }
            ]
        },
        {
            "name" : "Cube.001",
            "primitives" : [
                {
                    "attributes" : {
                        "POSITION" : 11,
                        "NORMAL" : 12,
                        "TEXCOORD_0" : 13
                    },
                    "indices" : 14
                }
            ]
        }
    ],
    "accessors" : [
        {
            "bufferView" : 0,
            "componentType" : 5126,
            "count" : 84,
            "max" : [
                1.2495959997177124,
                0.8449035286903381,
                1.2495959997177124
            ],
            "min" : [
                -1.2495959997177124,
                -0.7367880940437317,
                -1.2495959997177124
            ],
            "type" : "VEC3"
        },
        {
            "bufferView" : 1,
            "componentType" : 5126,
            "count" : 84,
            "type" : "VEC3"
        },
        {
            "bufferView" : 2,
            "componentType" : 5126,
            "count" : 84,
            "type" : "VEC2"
        },
        {
            "bufferView" : 3,
            "componentType" : 5123,
            "count" : 132,
            "type" : "SCALAR"
        },
        {
            "bufferView" : 4,
            "componentType" : 5126,
            "count" : 400,
            "max" : [
                1.2000000476837158,
                0.19021135568618774,
                1.2000000476837158
            ],
            "min" : [
                -1.2000000476837158,
                -0.19021135568618774,
                -1.2000000476837158
            ],
            "type" : "VEC3"
        },
        {
            "bufferView" : 5,
            "componentType" : 5126,
            "count" : 400,
            "type" : "VEC3"
        },
        {
            "bufferView" : 6,
            "componentType" : 5126,
            "count" : 400,
            "type" : "VEC2"
        },
        {
            "bufferView" : 7,
            "componentType" : 5123,
            "count" : 600,
            "type" : "SCALAR"
        },
        {
            "bufferView" : 8,
            "componentType" : 5126,
            "count" : 400,
            "max" : [
                1.2000000476837158,
                0.19021135568618774,
                1.2000000476837158
            ],
            "min" : [
                -1.2000000476837158,
                -0.19021135568618774,
                -1.2000000476837158
            ],
            "type" : "VEC3"
        },
        {
            "bufferView" : 9,
            "componentType" : 5126,
            "count" : 400,
            "type" : "VEC3"
        },
        {
            "bufferView" : 10,
            "componentType" : 5126,
            "count" : 400,
            "type" : "VEC2"
        },
        {
            "bufferView" : 11,
            "componentType" : 5126,
            "count" : 224,
            "max" : [
                0.9427342414855957,
                0.8791847229003906,
                0.8791847825050354
            ],
            "min" : [
                -0.8395062685012817,
                -0.8791847229003906,
                -0.8791847229003906
            ],
            "type" : "VEC3"
        },
        {
            "bufferView" : 12,
            "componentType" : 5126,
            "count" : 224,
            "type" : "VEC3"
        },
        {
            "bufferView" : 13,
            "componentType" : 5126,
            "count" : 224,
            "type" : "VEC2"
        },
        {
            "bufferView" : 14,
            "componentType" : 5123,
            "count" : 336,
            "type" : "SCALAR"
        }
    ],
    "bufferViews" : [
        {
            "buffer" : 0,
            "byteLength" : 1008,
            "byteOffset" : 0
        },
        {
            "buffer" : 0,
            "byteLength" : 1008,
            "byteOffset" : 1008
        },
        {
            "buffer" : 0,
            "byteLength" : 672,
            "byteOffset" : 2016
        },
        {
            "buffer" : 0,
            "byteLength" : 264,
            "byteOffset" : 2688
        },
        {
            "buffer" : 0,
            "byteLength" : 4800,
            "byteOffset" : 2952
        },
        {
            "buffer" : 0,
            "byteLength" : 4800,
            "byteOffset" : 7752
        },
        {
            "buffer" : 0,
            "byteLength" : 3200,
            "byteOffset" : 12552
        },
        {
            "buffer" : 0,
            "byteLength" : 1200,
            "byteOffset" : 15752
        },
        {
            "buffer" : 0,
            "byteLength" : 4800,
            "byteOffset" : 16952
        },
        {
            "buffer" : 0,
            "byteLength" : 4800,
            "byteOffset" : 21752
        },
        {
            "buffer" : 0,
            "byteLength" : 3200,
            "byteOffset" : 26552
        },
        {
            "buffer" : 0,
            "byteLength" : 2688,
            "byteOffset" : 29752
        },
        {
            "buffer" : 0,
            "byteLength" : 2688,
            "byteOffset" : 32440
        },
        {
            "buffer" : 0,
            "byteLength" : 1792,
            "byteOffset" : 35128
        },
        {
            "buffer" : 0,
            "byteLength" : 672,
            "byteOffset" : 36920
        }
    ],
    "buffers" : [
        {
            "byteLength" : 37592,
            "uri" : "data:application/octet-stream;base64,"
        }
    ]
}
